<?xml version="1.0" encoding="UTF-8" standalone="no" ?>
<!DOCTYPE svg PUBLIC "-//W3C//DTD SVG 1.1//EN" "http://www.w3.org/Graphics/SVG/1.1/DTD/svg11.dtd">
<svg xmlns="http://www.w3.org/2000/svg" xmlns:xlink="http://www.w3.org/1999/xlink" version="1.1" width="220" height="200" viewBox="0 0 220 200" xml:space="preserve">
<desc>Created with Fabric.js 4.6.0</desc>
<defs>
</defs>
<g transform="matrix(1.17 1.17 -1.17 1.17 163.09 132.8)" id="TpsKgKjJ9D5FH6aiYscVx"  >
<path style="stroke: rgb(255,255,255); stroke-width: 2; stroke-dasharray: none; stroke-linecap: butt; stroke-dashoffset: 0; stroke-linejoin: miter; stroke-miterlimit: 4; fill: rgb(18,146,79); fill-rule: nonzero; opacity: 1;" vector-effect="non-scaling-stroke"  transform=" translate(0, 0)" d="M -20.44843 -11.7729 C -20.44843 -16.56427 -16.564259999999997 -20.448430000000002 -11.772899999999998 -20.448430000000002 L 11.772900000000002 -20.448430000000002 L 11.772900000000002 -20.448430000000002 C 16.56427 -20.448430000000002 20.448430000000002 -16.56426 20.448430000000002 -11.772900000000002 L 20.448430000000002 11.772899999999998 L 20.448430000000002 11.772899999999998 C 20.448430000000002 16.564269999999997 16.56426 20.44843 11.772900000000002 20.44843 L -11.772899999999998 20.44843 L -11.772899999999998 20.44843 C -16.564269999999997 20.44843 -20.44843 16.564259999999997 -20.44843 11.772899999999998 z" stroke-linecap="round" />
</g>
<g transform="matrix(1.17 1.17 -1.17 1.17 163.09 109.54)" id="BFc_TfLCWfyC1C28IGRl1"  >
<path style="stroke: rgb(255,255,255); stroke-width: 2; stroke-dasharray: none; stroke-linecap: butt; stroke-dashoffset: 0; stroke-linejoin: miter; stroke-miterlimit: 4; fill: rgb(34,34,34); fill-rule: nonzero; opacity: 1;" vector-effect="non-scaling-stroke"  transform=" translate(0, 0)" d="M -20.44843 -11.7729 C -20.44843 -16.56427 -16.564259999999997 -20.448430000000002 -11.772899999999998 -20.448430000000002 L 11.772900000000002 -20.448430000000002 L 11.772900000000002 -20.448430000000002 C 16.56427 -20.448430000000002 20.448430000000002 -16.56426 20.448430000000002 -11.772900000000002 L 20.448430000000002 11.772899999999998 L 20.448430000000002 11.772899999999998 C 20.448430000000002 16.564269999999997 16.56426 20.44843 11.772900000000002 20.44843 L -11.772899999999998 20.44843 L -11.772899999999998 20.44843 C -16.564269999999997 20.44843 -20.44843 16.564259999999997 -20.44843 11.772899999999998 z" stroke-linecap="round" />
</g>
<g transform="matrix(1.17 1.17 -1.17 1.17 163.09 86.86)" id="Y2H1N7CWMpvPki_cclaMJ"  >
<path style="stroke: rgb(255,255,255); stroke-width: 2; stroke-dasharray: none; stroke-linecap: butt; stroke-dashoffset: 0; stroke-linejoin: miter; stroke-miterlimit: 4; fill: rgb(97,218,251); fill-rule: nonzero; opacity: 1;" vector-effect="non-scaling-stroke"  transform=" translate(0, 0)" d="M -20.44843 -11.7729 C -20.44843 -16.56427 -16.564259999999997 -20.448430000000002 -11.772899999999998 -20.448430000000002 L 11.772900000000002 -20.448430000000002 L 11.772900000000002 -20.448430000000002 C 16.56427 -20.448430000000002 20.448430000000002 -16.56426 20.448430000000002 -11.772900000000002 L 20.448430000000002 11.772899999999998 L 20.448430000000002 11.772899999999998 C 20.448430000000002 16.564269999999997 16.56426 20.44843 11.772900000000002 20.44843 L -11.772899999999998 20.44843 L -11.772899999999998 20.44843 C -16.564269999999997 20.44843 -20.44843 16.564259999999997 -20.44843 11.772899999999998 z" stroke-linecap="round" />
</g>
<g transform="matrix(1.17 1.17 -1.17 1.17 163.09 63.6)" id="i_iMP2c7y8XrCI_D7mRVh"  >
<path style="stroke: rgb(255,255,255); stroke-width: 2; stroke-dasharray: none; stroke-linecap: butt; stroke-dashoffset: 0; stroke-linejoin: miter; stroke-miterlimit: 4; fill: rgb(131,205,41); fill-rule: nonzero; opacity: 1;" vector-effect="non-scaling-stroke"  transform=" translate(0, 0)" d="M -20.44843 -11.7729 C -20.44843 -16.56427 -16.564259999999997 -20.448430000000002 -11.772899999999998 -20.448430000000002 L 11.772900000000002 -20.448430000000002 L 11.772900000000002 -20.448430000000002 C 16.56427 -20.448430000000002 20.448430000000002 -16.56426 20.448430000000002 -11.772900000000002 L 20.448430000000002 11.772899999999998 L 20.448430000000002 11.772899999999998 C 20.448430000000002 16.564269999999997 16.56426 20.44843 11.772900000000002 20.44843 L -11.772899999999998 20.44843 L -11.772899999999998 20.44843 C -16.564269999999997 20.44843 -20.44843 16.564259999999997 -20.44843 11.772899999999998 z" stroke-linecap="round" />
</g>
<g transform="matrix(0.24 0 0 0.24 97.45 135.99)" id="3_8H426qiW5oYF0TOhp5g"  >
<path style="stroke: none; stroke-width: 1; stroke-dasharray: none; stroke-linecap: butt; stroke-dashoffset: 0; stroke-linejoin: miter; stroke-miterlimit: 4; fill: rgb(233,233,233); fill-rule: nonzero; opacity: 1;" vector-effect="non-scaling-stroke"  transform=" translate(0, 0)" d="M 2.72524 11.93681 C 2.72524 15.664439999999999 4.88371 19.05489 8.26111 20.63235 C 11.63851 22.20982 15.623830000000002 21.68892 18.48234 19.2964 L 36.448350000000005 4.259179999999999 L 36.448350000000005 4.259179999999999 C 37.713680000000004 3.200119999999999 38.44476 1.6348599999999989 38.44476 -0.015190000000001369 C 38.44476 -1.6652500000000015 37.713680000000004 -3.2305000000000015 36.448350000000005 -4.289560000000002 L 18.526050000000005 -19.290200000000002 L 18.526050000000005 -19.290200000000002 C 15.659610000000004 -21.68936 11.663240000000005 -22.2117 8.276470000000005 -20.62985 C 4.889700000000005 -19.04801 2.7252400000000048 -15.64816 2.7252400000000048 -11.910190000000002 L 2.7252400000000048 -11.910190000000002 L -14.597759999999996 -11.910190000000002 L -14.597759999999996 -11.910190000000002 C -27.768089999999994 -11.910190000000002 -38.444759999999995 -1.2335200000000022 -38.444759999999995 11.93681 L -38.444759999999995 11.93681 z" stroke-linecap="round" />
</g>
<g transform="matrix(0.06 0 0 0.06 42.83 135.99)" id="mAho7UTkOdACXc0XryMVJ"  >
<g style="" vector-effect="non-scaling-stroke"   >
		<g transform="matrix(1 0 0 1 -484.76 -16.79)" id="8qxwG3WM4q-Og-XQVyqy_"  >
<path style="stroke: none; stroke-width: 1; stroke-dasharray: none; stroke-linecap: butt; stroke-dashoffset: 0; stroke-linejoin: miter; stroke-miterlimit: 4; fill: rgb(16,170,80); fill-rule: nonzero; opacity: 1;" vector-effect="non-scaling-stroke"  transform=" translate(-71.54, -133.21)" d="M 134.44 120.34 C 119.13 52.8 87.22 34.82 79.08 22.11 C 75.72343341301232 16.510934217279 72.74996158573293 10.690947786806392 70.17999999999998 4.690000000000033 C 69.74999999999999 10.689999999999998 68.96 14.469999999999997 63.85999999999999 19.019999999999996 C 53.62 28.15 10.13 63.59 6.47 140.33 C 3.0599999999999996 211.88 59.07 256 66.47 260.56 C 72.16 263.36 79.09 260.62 82.47 258.05 C 109.47 239.52 146.36 190.12 134.47 120.34" stroke-linecap="round" />
</g>
		<g transform="matrix(1 0 0 1 -481.7 108.88)" id="RgHqXEYgga7dbuDkpAzBy"  >
<path style="stroke: none; stroke-width: 1; stroke-dasharray: none; stroke-linecap: butt; stroke-dashoffset: 0; stroke-linejoin: miter; stroke-miterlimit: 4; fill: rgb(184,196,194); fill-rule: nonzero; opacity: 1;" vector-effect="non-scaling-stroke"  transform=" translate(-74.61, -258.88)" d="M 72.5 222.46 C 71.09 240.17000000000002 70.08 250.46 66.5 260.58 C 66.5 260.58 68.85 277.44 70.5 295.29999999999995 L 76.34 295.29999999999995 C 77.73303421636037 282.7232022484043 79.85999466743888 270.23857881577874 82.71000000000001 257.9100000000001 C 75.15 254.19 72.79 238 72.5 222.46 Z" stroke-linecap="round" />
</g>
		<g transform="matrix(1 0 0 1 -452.49 -17.94)" id="bgQtEZzhxpzpS1QjNIxlE"  >
<path style="stroke: none; stroke-width: 1; stroke-dasharray: none; stroke-linecap: butt; stroke-dashoffset: 0; stroke-linejoin: miter; stroke-miterlimit: 4; fill: rgb(18,146,79); fill-rule: nonzero; opacity: 1;" vector-effect="non-scaling-stroke"  transform=" translate(-103.81, -132.06)" d="M 82.7 257.92 L 82.7 257.92 C 75.06 254.39000000000001 72.85000000000001 237.86 72.51 222.46 C 74.39940082452938 197.05658679422876 74.95016294797851 171.57132126372312 74.1600000000001 146.10999999999984 C 73.76 132.75 74.35000000000001 22.37000000000002 70.87 6.210000000000008 C 73.2505111578852 11.68322766355309 75.99325942986474 16.991664940258946 79.07999999999998 22.10000000000001 C 87.22 34.82 119.14 52.8 134.44 120.34 C 146.36 190 109.67 239.27 82.7 257.92 Z" stroke-linecap="round" />
</g>
		<g transform="matrix(1 0 0 1 533.4 66.91)" id="rbOPNUbHfDKQ-DwRC4lti"  >
<path style="stroke: none; stroke-width: 1; stroke-dasharray: none; stroke-linecap: butt; stroke-dashoffset: 0; stroke-linejoin: miter; stroke-miterlimit: 4; fill: rgb(33,49,60); fill-rule: nonzero; opacity: 1;" vector-effect="non-scaling-stroke"  transform=" translate(-1089.7, -216.91)" d="M 1089.7 233.5 C 1080.5677302520298 233.49912232688212 1073.153385372256 226.11778097701148 1073.1117666927692 216.9856060221872 C 1073.0701480132823 207.8534310673629 1080.4169073370028 200.40481793746653 1089.5487897460678 200.32070380660633 C 1098.680672155133 200.23658967574607 1106.1633922392152 207.54860788297253 1106.29 216.68 C 1106.4101455838224 221.13664904836182 1104.7085123819552 225.44972622094352 1101.5778170004871 228.62382485363142 C 1098.447121619019 231.7979234863193 1094.157880777604 233.55877647696897 1089.7 233.5 M 1089.7 201.82 C 1083.587328445239 201.77953964836163 1078.0532771645073 205.42844046259208 1075.6822384895372 211.06267210304085 C 1073.3111998145669 216.69690374348963 1074.570978928418 223.20483408378706 1078.8732611740056 227.54727096366685 C 1083.1755434195932 231.88970784354663 1089.6714898662333 233.20988983563828 1095.3275048111734 230.89129424367914 C 1100.9835197561138 228.57269865172 1104.6836732338757 223.07278365502546 1104.7 216.95999999999998 C 1104.7786277361388 212.94537937045646 1103.2281349062919 209.0700329722326 1100.4020440861034 206.217565304389 C 1097.575953265915 203.36509763654544 1093.7151778292573 201.7786705977773 1089.7 201.82 M 1093.7 227.39999999999998 L 1089.42 218.17 L 1085.97 218.17 L 1085.97 227.39999999999998 L 1083.46 227.39999999999998 L 1083.46 206.39999999999998 L 1089.65 206.39999999999998 C 1094.26 206.39999999999998 1096.18 208.39999999999998 1096.18 212.26999999999998 C 1096.18 215.35 1094.73 217.26999999999998 1092.03 217.85999999999999 L 1096.45 227.36999999999998 Z M 1086.07 216 L 1089.7 216 C 1092.64 216 1093.76 215 1093.76 212.32 C 1093.76 209.64 1092.69 208.73 1089.3799999999999 208.73 L 1086.07 208.73 Z" stroke-linecap="round" />
</g>
		<g transform="matrix(1 0 0 1 308.57 17.26)" id="xk3t0FODcuhGIjz-VPVDp"  >
<path style="stroke: none; stroke-width: 1; stroke-dasharray: none; stroke-linecap: butt; stroke-dashoffset: 0; stroke-linejoin: miter; stroke-miterlimit: 4; fill: rgb(33,49,60); fill-rule: nonzero; opacity: 1;" vector-effect="non-scaling-stroke"  transform=" translate(-864.87, -167.26)" d="M 842.79 218.38 C 847.28 221.97 856.25 223.45 864.16 223.45 C 874.41 223.45 884.4599999999999 221.54999999999998 894.28 212.67999999999998 C 904.28 203.58999999999997 911.16 189.67999999999998 911.16 167.46999999999997 C 911.16 146.12999999999997 903.04 128.80999999999997 886.38 118.66999999999997 C 876.98 112.75999999999998 864.8 110.42999999999998 850.91 110.42999999999998 C 846.91 110.42999999999998 842.79 110.63999999999997 840.4499999999999 111.69999999999997 C 839.4906633117641 112.45728734554027 838.8114593039822 113.51304487058994 838.52 114.69999999999997 C 838.1 118.49999999999997 838.1 147.43999999999997 838.1 164.54999999999998 C 838.1 182.08999999999997 838.1 206.54999999999998 838.52 209.54999999999998 C 838.74 212.08999999999997 840.02 216.54999999999998 842.79 218.42 M 800.15 100.93 C 803.78 100.93 817.5799999999999 101.56 824 101.56 C 836 101.56 844.29 100.93 866.72 100.93 C 885.52 100.93 901.34 106 912.65 115.71000000000001 C 926.3299999999999 127.55000000000001 933.65 144.02 933.65 164.09 C 933.65 192.61 920.65 209.09 907.5799999999999 218.38 C 894.5799999999999 228.1 877.67 233.59 853.5799999999999 233.59 C 840.7599999999999 233.59 818.7499999999999 233.17000000000002 800.3799999999999 232.96 L 800 232.96 C 799.14 231.27 801.57 224.68 803.07 224.51000000000002 C 808.07 223.95000000000002 809.3900000000001 223.75000000000003 811.69 222.8 C 815.57 221.21 816.48 219.23000000000002 816.9100000000001 212.26000000000002 C 817.5500000000001 199.16000000000003 817.34 183.53000000000003 817.34 165.78000000000003 C 817.34 153.11000000000004 817.5500000000001 128.39000000000004 817.13 120.57000000000002 C 816.48 114.03000000000002 813.72 112.34000000000002 808.13 111.07000000000002 C 804.165855729867 110.22791537355755 800.1603859701222 109.59371599493127 796.1299999999999 109.17 C 795.71 107.90000000000002 798.99 102.17000000000002 800.06 100.93000000000002" stroke-linecap="round" />
</g>
		<g transform="matrix(1 0 0 1 444.52 17.73)" id="cjsbkXsFOxTmHSKz1zHVu"  >
<path style="stroke: none; stroke-width: 1; stroke-dasharray: none; stroke-linecap: butt; stroke-dashoffset: 0; stroke-linejoin: miter; stroke-miterlimit: 4; fill: rgb(33,49,60); fill-rule: nonzero; opacity: 1;" vector-effect="non-scaling-stroke"  transform=" translate(-1000.83, -167.73)" d="M 986.6 111.65 C 985.75 111.86 984.6800000000001 113.98 984.6800000000001 115.03 C 984.46 122.64 984.2500000000001 142.49 984.2500000000001 156.22 C 984.3605933600041 156.7566053525881 984.7823798896281 157.1744499520287 985.3200000000002 157.28 C 988.0900000000001 157.49 994.9300000000002 157.71 1000.7000000000002 157.71 C 1008.8200000000002 157.71 1013.5200000000002 156.65 1016.0800000000002 155.38 C 1022.9200000000002 152 1026.0800000000002 144.6 1026.0800000000002 136.57999999999998 C 1026.0800000000002 118.19999999999999 1013.2600000000001 111.22999999999999 994.2500000000001 111.22999999999999 C 991.680151477712 111.19753398529618 989.1110268569184 111.33785028448126 986.5600000000001 111.64999999999999 M 1035.06 196.14999999999998 C 1035.06 177.55999999999997 1021.38 166.99999999999997 996.38 166.99999999999997 C 995.32 166.99999999999997 987.38 166.78999999999996 985.49 167.20999999999998 C 984.85 167.42 984.21 167.83999999999997 984.21 168.26999999999998 C 984.21 181.57999999999998 983.99 202.90999999999997 984.64 211.35999999999999 C 985.0699999999999 214.95 987.64 220.01999999999998 990.83 221.5 C 994.25 223.4 1001.94 223.82 1007.2800000000001 223.82 C 1022.0200000000001 223.82 1035.0600000000002 215.59 1035.0600000000002 196.14999999999998 M 948 101.3 C 949.93 101.3 955.61 101.92999999999999 970.14 101.92999999999999 C 983.81 101.92999999999999 994.92 101.50999999999999 1008.14 101.50999999999999 C 1024.59 101.50999999999999 1047.23 107.42999999999999 1047.23 131.93 C 1047.23 143.93 1038.69 153.69 1027.58 158.34 C 1026.9399999999998 158.55 1026.9399999999998 158.97 1027.58 159.18 C 1043.3899999999999 163.18 1057.27 172.91 1057.27 191.5 C 1057.27 209.67000000000002 1045.95 221.07999999999998 1029.5 228.26 C 1019.5 232.7 1007.07 234.17 994.5 234.17 C 984.89 234.17 959.13 233.17 944.81 233.32999999999998 C 943.31 232.7 946.18 225.92999999999998 947.4599999999999 224.88 C 950.7407231878233 224.7791378631196 953.9959668926069 224.2685113996241 957.15 223.35999999999999 C 962.27 222.1 962.88 220.45 963.52 212.83999999999997 C 963.9499999999999 206.28999999999996 963.9499999999999 182.83999999999997 963.9499999999999 166.14999999999998 C 963.9499999999999 143.32999999999998 964.17 127.91999999999999 963.9499999999999 120.30999999999997 C 963.7399999999999 114.39999999999998 961.5999999999999 112.48999999999998 957.54 111.43999999999997 C 954.3399999999999 110.79999999999997 949 110.16999999999997 944.73 109.53999999999996 C 943.66 108.47999999999996 946.95 102.13999999999996 948.01 101.29999999999997" stroke-linecap="round" />
</g>
		<g transform="matrix(1 0 0 1 -296.54 39.47)" id="rvK0Z7xBOU6CnhD4Qbzh8"  >
<path style="stroke: none; stroke-width: 1; stroke-dasharray: none; stroke-linecap: butt; stroke-dashoffset: 0; stroke-linejoin: miter; stroke-miterlimit: 4; fill: rgb(33,49,60); fill-rule: nonzero; opacity: 1;" vector-effect="non-scaling-stroke"  transform=" translate(-259.76, -189.47)" d="M 181.75 233.5 C 181.19977530124703 232.1478024538416 180.97705043065577 230.68467138088047 181.1 229.23 C 181.05207446050073 228.23844397417952 181.27688803630085 227.25272291105594 181.75 226.38 C 184.5131765355588 225.98150165162644 187.25105942009355 225.42390843001996 189.95000000000002 224.70999999999998 C 193.73 223.77 195.14999999999998 221.71 195.36999999999998 216.89000000000001 C 195.98999999999998 205.5 196.02999999999997 184.13000000000002 195.80999999999997 169.11 L 195.80999999999997 168.67000000000002 C 195.80999999999997 167.05 195.80999999999997 164.85000000000002 193.80999999999997 163.3 C 190.29477608150378 161.09461842847813 186.47842837604014 159.41044027072718 182.47999999999996 158.3 C 180.68999999999997 157.77 179.69999999999996 156.83 179.74999999999997 155.73000000000002 C 179.79999999999998 154.63000000000002 180.92999999999998 153.33 183.25999999999996 152.87 C 189.44999999999996 152.24 205.66999999999996 148.37 212.03999999999996 145.43 C 212.69593319492117 146.284815937154 213.00004636065566 147.35815652209922 212.88999999999996 148.43 C 212.88999999999996 149.09 212.78999999999996 149.79000000000002 212.71999999999997 150.51000000000002 C 212.53999999999996 152.63000000000002 212.33999999999997 155.04000000000002 212.33999999999997 157.44000000000003 C 212.41989531967795 158.03468943737454 212.82975362401805 158.53280131940238 213.39792536274774 158.72572530531434 C 213.96609710147743 158.91864929122627 214.59451644347197 158.77308690851356 215.01999999999998 158.35000000000002 C 227.14999999999998 148.84000000000003 238.01999999999998 145.45000000000002 243.58999999999997 145.45000000000002 C 252.75999999999996 145.45000000000002 259.9 149.83 265.42999999999995 158.85000000000002 C 265.68784645475847 159.2928260665553 266.15768382323705 159.5694238721919 266.66999999999996 159.58 C 267.1348411756236 159.57566472347492 267.56812647412534 159.3440812018619 267.83 158.96 C 278.97999999999996 150.5 290.03 145.45000000000002 297.43 145.45000000000002 C 314.91 145.45000000000002 325.36 158.54000000000002 325.36 180.45000000000002 C 325.36 186.75000000000003 325.3 194.74 325.24 202.19000000000003 C 325.19 208.73000000000002 325.14 214.86 325.14 219.10000000000002 C 325.14 220.10000000000002 326.52 222.98000000000002 328.59 223.55 C 331.15 224.8 334.84 225.44 339.51 226.24 L 339.69 226.24 C 340.04 227.5 339.3 232.39000000000001 338.59 233.39000000000001 C 337.42999999999995 233.39000000000001 335.83 233.29000000000002 333.83 233.19000000000003 C 330.2 233.01000000000002 325.21999999999997 232.76000000000002 319.43 232.76000000000002 C 307.81 232.76000000000002 301.74 232.98000000000002 295.94 233.36 C 295.5 231.91000000000003 295.35 227.23000000000002 295.88 226.25 C 298.2818610184862 225.87439671451773 300.659359626724 225.35682328154462 303 224.7 C 306.7 223.48 307.77 221.79999999999998 308 216.89 C 308.09 213.39999999999998 308.76 182.64999999999998 307.57 175.35 C 306.46999999999997 167.78 300.77 158.92 288.3 158.92 C 283.67 158.92 276.2 160.85 269.08000000000004 166.25 C 268.6383607817184 166.75059695050226 268.39010638233674 167.39251189747483 268.38000000000005 168.06 L 268.38000000000005 168.21 C 269.22 172.15 269.22 176.75 269.22 183.70000000000002 C 269.22 187.70000000000002 269.22 191.87 269.17 196.04000000000002 C 269.12 204.52 269.08000000000004 212.52 269.22 218.57000000000002 C 269.22 222.69000000000003 271.71000000000004 223.68000000000004 273.72 224.47000000000003 C 274.81 224.71000000000004 275.67 224.92000000000002 276.54 225.12000000000003 C 278.21000000000004 225.53000000000003 279.95000000000005 225.95000000000005 282.54 226.36000000000004 C 282.9233913129119 228.11672973192552 282.88913962843833 229.9389193459195 282.44 231.68000000000004 C 282.3340205114851 232.33340917109902 282.0772297086176 232.95313097535248 281.69 233.49000000000004 C 275.23 233.27000000000004 268.6 233.08000000000004 259.03 233.08000000000004 C 256.13 233.08000000000004 251.39999999999998 233.20000000000005 247.21999999999997 233.31000000000003 C 243.82999999999998 233.40000000000003 240.62999999999997 233.49000000000004 238.80999999999997 233.50000000000003 C 238.3177863623847 232.3384954403589 238.09882796858224 231.0794846759947 238.17 229.82000000000002 C 238.06783838053354 228.63327195072569 238.29992908568494 227.4416420615902 238.83999999999997 226.38000000000002 L 241.40999999999997 225.91000000000003 C 243.64999999999998 225.51000000000002 245.58999999999997 225.17000000000002 247.40999999999997 224.71000000000004 C 250.56999999999996 223.71000000000004 251.75999999999996 221.99000000000004 251.98999999999998 217.96000000000004 C 252.60999999999999 208.56000000000003 253.08999999999997 181.47000000000003 251.76 174.69000000000003 C 249.5 163.81000000000003 243.31 158.29000000000002 233.35 158.29000000000002 C 227.51999999999998 158.29000000000002 220.15 161.10000000000002 214.13 165.61 C 212.9593632277154 166.74983481896223 212.31776227125937 168.32665072889648 212.35999999999999 169.96 C 212.35999999999999 173.19 212.35999999999999 177.03 212.35999999999999 181.15 C 212.35999999999999 194.75 212.26999999999998 211.68 212.6 219 C 212.79999999999998 221.26 213.6 223.94 217.82999999999998 224.92 C 218.76 225.19 220.35999999999999 225.45 222.21999999999997 225.76 C 223.28999999999996 225.94 224.45999999999998 226.13 225.66999999999996 226.35 C 226.05466828610795 228.7446160345144 225.85919756931787 231.19657327144262 225.09999999999997 233.5 C 223.23999999999995 233.5 220.94999999999996 233.38 218.32999999999996 233.27 C 214.32999999999996 233.09 209.32999999999996 232.87 203.67999999999995 232.87 C 196.99999999999994 232.87 192.34999999999994 233.09 188.61999999999995 233.27 C 186.10999999999996 233.39000000000001 183.93999999999994 233.49 181.76999999999995 233.5" stroke-linecap="round" />
</g>
		<g transform="matrix(1 0 0 1 -155.64 40.45)" id="4HGUMSjDXfXM4-Z2XjU1b"  >
<path style="stroke: none; stroke-width: 1; stroke-dasharray: none; stroke-linecap: butt; stroke-dashoffset: 0; stroke-linejoin: miter; stroke-miterlimit: 4; fill: rgb(33,49,60); fill-rule: nonzero; opacity: 1;" vector-effect="non-scaling-stroke"  transform=" translate(-400.67, -190.45)" d="M 396.2 154.49 C 392.59075611790746 154.41505207552422 389.04059607522373 155.4139696561617 386 157.36 C 378.58 161.87 374.8 170.88000000000002 374.8 184.12 C 374.8 208.9 387.21000000000004 226.21 404.98 226.21 C 409.744642253728 226.36108241353443 414.39199145901466 224.7155924107409 418 221.6 C 423.46 217.15 426.36 208.04999999999998 426.36 195.31 C 426.36 170.9 414.23 154.49 396.18 154.49 M 399.6 235.4 C 367.5 235.4 356.07000000000005 211.85 356.07000000000005 189.82 C 356.07000000000005 174.43 362.36000000000007 162.39999999999998 374.77000000000004 154.04999999999998 C 383.4620820941983 148.6689263152292 393.4392224022473 145.71964357965504 403.66 145.51 C 428.15000000000003 145.51 445.26000000000005 163.12 445.26000000000005 188.35 C 445.26000000000005 205.49 438.43000000000006 219.03 425.50000000000006 227.49 C 419.2900000000001 231.29000000000002 408.50000000000006 235.4 399.6000000000001 235.4" stroke-linecap="round" />
</g>
		<g transform="matrix(1 0 0 1 171.18 40.46)" id="e36zh2vyKQtFuFQMuNvcR"  >
<path style="stroke: none; stroke-width: 1; stroke-dasharray: none; stroke-linecap: butt; stroke-dashoffset: 0; stroke-linejoin: miter; stroke-miterlimit: 4; fill: rgb(33,49,60); fill-rule: nonzero; opacity: 1;" vector-effect="non-scaling-stroke"  transform=" translate(-727.48, -190.46)" d="M 723 154.49 C 719.3835982333666 154.4080266406926 715.8250347275826 155.40734926902917 712.78 157.36 C 705.36 161.87 701.5799999999999 170.88000000000002 701.5799999999999 184.12 C 701.5799999999999 208.9 713.9899999999999 226.21 731.7599999999999 226.21 C 736.5382937937137 226.37122316455503 741.201730918679 224.7250941334608 744.8199999999998 221.6 C 750.2799999999999 217.15 753.1699999999998 208.04999999999998 753.1699999999998 195.31 C 753.1699999999998 170.9 741.0499999999998 154.49 722.9999999999999 154.49 M 726.4199999999998 235.4 C 694.3199999999998 235.4 682.8899999999999 211.85 682.8899999999999 189.83 C 682.8899999999999 174.42000000000002 689.1799999999998 162.4 701.5999999999999 154.05 C 710.2869521778098 148.6656757645062 720.2617991298514 145.716049969131 730.4799999999999 145.51000000000002 C 754.9699999999999 145.51000000000002 772.0799999999999 163.13000000000002 772.0799999999999 188.34000000000003 C 772.0799999999999 205.50000000000003 765.2499999999999 219.03000000000003 752.3199999999999 227.48000000000002 C 746.1099999999999 231.29000000000002 735.3199999999999 235.4 726.42 235.4" stroke-linecap="round" />
</g>
		<g transform="matrix(1 0 0 1 66.85 65.77)" id="YSGlNpRDEEC-NMAMLgykP"  >
<path style="stroke: none; stroke-width: 1; stroke-dasharray: none; stroke-linecap: butt; stroke-dashoffset: 0; stroke-linejoin: miter; stroke-miterlimit: 4; fill: rgb(33,49,60); fill-rule: nonzero; opacity: 1;" vector-effect="non-scaling-stroke"  transform=" translate(-623.15, -215.77)" d="M 614.92 153.65 C 605.03 153.65 598.63 161.46 598.63 173.55 C 598.63 185.64000000000001 604.14 200.01000000000002 619.63 200.01000000000002 C 622.29 200.01000000000002 627.11 198.83 629.5 196.20000000000002 C 633.1 192.89000000000001 635.5 186.05 635.5 178.83 C 635.5 163.06 627.82 153.65 614.97 153.65 M 613.69 237.09 C 610.8959369760419 237.05951177944948 608.1410023291158 237.74824544118098 605.69 239.09 C 597.86 244.09 594.23 249.09 594.23 254.9 C 594.23 260.34000000000003 596.34 264.67 600.88 268.51 C 606.38 273.17 613.8 275.44 623.55 275.44 C 642.74 275.44 651.3399999999999 265.12 651.3399999999999 254.9 C 651.3399999999999 247.78 647.7699999999999 243.01 640.42 240.31 C 634.76 238.24 625.3 237.1 613.7199999999999 237.1 M 614.9999999999999 286.1 C 603.4799999999999 286.1 595.1799999999998 283.67 588.0899999999999 278.21000000000004 C 581.1899999999999 272.89000000000004 578.0899999999999 264.99 578.0899999999999 259.53000000000003 C 578.1646543872705 256.0114154641338 579.5069078284934 252.6380271859282 581.8699999999999 250.03000000000003 C 583.8699999999999 247.75000000000003 588.5199999999999 243.48000000000002 599.2699999999999 236.09000000000003 C 599.610681306183 235.9451418009312 599.8313508161226 235.6101970090586 599.8299999999998 235.24000000000004 C 599.8370631977823 234.82372401731942 599.5545947718144 234.45817664253744 599.1499999999999 234.36000000000004 C 590.2999999999998 230.97000000000006 587.6299999999999 225.36000000000004 586.8199999999998 222.36000000000004 C 586.8199999999998 222.25000000000003 586.8199999999998 222.08000000000004 586.7299999999998 221.89000000000004 C 586.4799999999998 220.71000000000004 586.2399999999998 219.59000000000003 587.8499999999998 218.44000000000005 C 589.0899999999998 217.56000000000006 591.0699999999998 216.38000000000005 593.1899999999998 215.13000000000005 C 596.1826755343338 213.473399438513 599.0533015848473 211.60532032065856 601.7799999999999 209.54000000000005 C 602.0770572582642 209.22078235443269 602.2097059498801 208.78208324844329 602.1392882454629 208.35175283256063 C 602.0688705410458 207.92142241667798 601.8033103790862 207.5478847594555 601.4199999999998 207.34000000000006 C 588.3199999999998 202.94000000000005 581.7199999999998 193.21000000000006 581.7199999999998 178.34000000000006 C 581.6384037682889 168.9291879176767 586.1552568357545 160.07092979445693 593.8199999999998 154.61000000000007 C 599.0899999999998 150.44000000000008 612.3199999999998 145.43000000000006 620.8899999999999 145.43000000000006 L 621.3899999999999 145.43000000000006 C 630.1999999999998 145.64000000000007 635.1699999999998 147.49000000000007 642.0499999999998 150.03000000000006 C 645.9636166630327 151.44510602381746 650.110539689847 152.10345550597947 654.2699999999999 151.97000000000006 C 661.5599999999998 151.97000000000006 664.7499999999999 149.66000000000005 667.4899999999999 146.97000000000006 C 667.934325244484 148.18164720311478 668.1709817337875 149.45959224535355 668.1899999999999 150.75000000000006 C 668.357393758292 153.82470519113016 667.5222098605444 156.87066999467996 665.81 159.43000000000006 C 664.3199999999999 161.50000000000006 660.81 163.00000000000006 657.5999999999999 163.00000000000006 C 657.2699999999999 163.00000000000006 656.9499999999999 163.00000000000006 656.5999999999999 162.95000000000005 C 654.910953281787 162.83107766157278 653.2368797060243 162.55318144799617 651.5999999999999 162.12000000000003 L 650.7799999999999 162.41000000000003 C 650.5199999999999 162.79000000000002 650.6899999999998 163.21000000000004 650.8999999999999 163.75000000000003 C 650.9512836660012 163.85556296245377 650.9914981330963 163.9661527469653 651.0199999999999 164.08000000000004 C 651.6052768246587 166.74890826482923 652.0029163180475 169.455530026551 652.2099999999999 172.18000000000004 C 652.2099999999999 187.73000000000005 646.0799999999999 194.50000000000003 639.4499999999999 199.52000000000004 C 633.0399944444791 204.32961189118816 625.4274374968795 207.277747581804 617.4499999999999 208.04000000000005 L 617.4499999999999 208.04000000000005 C 617.28 208.04000000000005 616.4499999999999 208.11000000000004 614.89 208.25000000000006 C 613.89 208.34000000000006 612.59 208.46000000000006 612.4 208.46000000000006 L 612.2099999999999 208.46000000000006 C 610.7699999999999 208.86000000000007 607.0099999999999 210.65000000000006 607.0099999999999 213.98000000000008 C 607.0099999999999 216.74000000000007 608.7099999999999 220.17000000000007 616.8399999999999 220.79000000000008 L 622.0999999999999 221.16000000000008 C 632.8199999999999 221.91000000000008 646.2099999999999 222.8400000000001 652.5099999999999 224.97000000000008 C 661.0815508527049 227.98407774915268 666.7536561557151 236.15561822477574 666.5799999999999 245.2400000000001 C 666.5799999999999 259.1900000000001 656.66 272.3100000000001 640.05 280.3300000000001 C 632.2170809696088 284.07136137573775 623.6405021860834 285.99587865558027 614.9599999999999 285.9600000000001" stroke-linecap="round" />
</g>
		<g transform="matrix(1 0 0 1 -43.21 39.81)" id="zaGEqv5A4kY3XXyX0_YN2"  >
<path style="stroke: none; stroke-width: 1; stroke-dasharray: none; stroke-linecap: butt; stroke-dashoffset: 0; stroke-linejoin: miter; stroke-miterlimit: 4; fill: rgb(33,49,60); fill-rule: nonzero; opacity: 1;" vector-effect="non-scaling-stroke"  transform=" translate(-513.1, -189.81)" d="M 565.86 226.06 C 561.16 225.43 557.73 224.79 553.6800000000001 222.89000000000001 C 552.8852363058999 222.06674014356173 552.3617496686905 221.01976686914313 552.1800000000001 219.89000000000001 C 551.7500000000001 213.34 551.7500000000001 194.33 551.7500000000001 181.89000000000001 C 551.7500000000001 171.74 550.0500000000001 162.89000000000001 545.7500000000001 156.54000000000002 C 540.6200000000001 149.35000000000002 533.3600000000001 145.13000000000002 523.9600000000002 145.13000000000002 C 515.6300000000001 145.13000000000002 504.52000000000015 150.83 495.34000000000015 158.65000000000003 C 495.1200000000001 158.86000000000004 493.71000000000015 160.20000000000005 493.7400000000001 158.12000000000003 C 493.7700000000001 156.04000000000002 494.09000000000015 151.82000000000002 494.29000000000013 149.12000000000003 C 494.4701155991584 147.66539370524345 493.9508355145793 146.21140946842183 492.89000000000016 145.20000000000005 C 486.89000000000016 148.20000000000005 470.0600000000002 152.20000000000005 463.83000000000015 152.81000000000006 C 459.29000000000013 153.69000000000005 458.14000000000016 158.06000000000006 462.9900000000002 159.57000000000005 L 463.0600000000002 159.57000000000005 C 466.9422707991502 160.64053527035867 470.6478567272537 162.2709930787242 474.0600000000002 164.41000000000005 C 475.9800000000002 165.89000000000004 475.77000000000015 168.00000000000006 475.77000000000015 169.69000000000005 C 475.98000000000013 183.84000000000006 475.98000000000013 205.60000000000005 475.34000000000015 217.43000000000006 C 475.13000000000017 222.08000000000007 473.84000000000015 223.77000000000007 470.42000000000013 224.62000000000006 L 470.7400000000001 224.51000000000005 C 468.1356487462959 225.16265653482697 465.49414104302303 225.6568956499779 462.8300000000001 225.99000000000007 C 461.7600000000001 227.04000000000005 461.7600000000001 233.17000000000004 462.8300000000001 234.44000000000003 C 464.9700000000001 234.44000000000003 475.8300000000001 233.81000000000003 484.8300000000001 233.81000000000003 C 497.2100000000001 233.81000000000003 503.6200000000001 234.44000000000003 506.8300000000001 234.44000000000003 C 508.1200000000001 232.96000000000004 508.5400000000001 227.26000000000002 507.6900000000001 225.99000000000004 C 504.73200303187576 225.8562326305131 501.794430402097 225.43083727819624 498.92000000000013 224.72000000000003 C 495.5100000000001 223.88000000000002 494.65000000000015 222.18000000000004 494.4400000000001 218.39000000000001 C 494.0200000000001 208.45000000000002 494.0200000000001 187.33 494.0200000000001 172.96 C 494.0200000000001 168.96 495.0800000000001 167.05 496.36000000000007 165.96 C 500.63000000000005 162.16 507.69000000000005 159.63 513.8800000000001 159.63 C 519.8800000000001 159.63 523.8800000000001 161.53 526.8800000000001 164.06 C 530.3742791546449 167.10901329021482 532.5649380051716 171.38294575349735 533 176 C 533.85 184 533.63 200.09 533.63 214 C 533.63 221.61 533 223.52 530.22 224.36 C 528.94 224.99 525.52 225.63000000000002 521.46 226.05 C 520.1800000000001 227.32000000000002 520.6 233.23000000000002 521.46 234.5 C 527.01 234.5 533.46 233.87 542.82 233.87 C 554.57 233.87 562.0500000000001 234.5 565.0400000000001 234.5 C 566.32 233.02 566.7500000000001 227.5 565.9000000000001 226.05" stroke-linecap="round" />
</g>
</g>
</g>
<g transform="matrix(0.24 0 0 0.24 97.55 112.73)" id="63qvEaqJdl52ijJNcjSfT"  >
<path style="stroke: none; stroke-width: 1; stroke-dasharray: none; stroke-linecap: butt; stroke-dashoffset: 0; stroke-linejoin: miter; stroke-miterlimit: 4; fill: rgb(233,233,233); fill-rule: nonzero; opacity: 1;" vector-effect="non-scaling-stroke"  transform=" translate(0, 0)" d="M 2.72524 11.93681 C 2.72524 15.664439999999999 4.88371 19.05489 8.26111 20.63235 C 11.63851 22.20982 15.623830000000002 21.68892 18.48234 19.2964 L 36.448350000000005 4.259179999999999 L 36.448350000000005 4.259179999999999 C 37.713680000000004 3.200119999999999 38.44476 1.6348599999999989 38.44476 -0.015190000000001369 C 38.44476 -1.6652500000000015 37.713680000000004 -3.2305000000000015 36.448350000000005 -4.289560000000002 L 18.526050000000005 -19.290200000000002 L 18.526050000000005 -19.290200000000002 C 15.659610000000004 -21.68936 11.663240000000005 -22.2117 8.276470000000005 -20.62985 C 4.889700000000005 -19.04801 2.7252400000000048 -15.64816 2.7252400000000048 -11.910190000000002 L 2.7252400000000048 -11.910190000000002 L -14.597759999999996 -11.910190000000002 L -14.597759999999996 -11.910190000000002 C -27.768089999999994 -11.910190000000002 -38.444759999999995 -1.2335200000000022 -38.444759999999995 11.93681 L -38.444759999999995 11.93681 z" stroke-linecap="round" />
</g>
<g transform="matrix(0.09 0 0 0.09 42.83 112.73)" id="tYUoX9g9xKMRBNlFxEHnq"  >
<path style="stroke: none; stroke-width: 1; stroke-dasharray: none; stroke-linecap: butt; stroke-dashoffset: 0; stroke-linejoin: miter; stroke-miterlimit: 4; fill: rgb(34,34,34); fill-rule: nonzero; opacity: 1;" vector-effect="non-scaling-stroke"  transform=" translate(-256, -74.14)" d="M 3.33224862 115.629027 L 3.33224862 58.6475756 L 74.4757566 58.6475756 L 74.4757566 55.315327 L 3.33224862 55.315327 L 3.33224862 3.33224862 L 78.9742922 3.33224862 L 78.9742922 0 L -3.55271368e-15 0 L -3.55271368e-15 118.961276 L 79.640742 118.961276 L 79.640742 115.629027 L 3.33224862 115.629027 L 3.33224862 115.629027 Z M 143.786528 33.3224862 L 114.296128 72.1431826 L 85.472177 33.3224862 L 81.1402538 33.3224862 L 112.296778 74.642369 L 78.14123 118.961276 L 82.1399284 118.961276 L 114.296128 77.1415554 L 146.618939 118.961276 L 150.78425 118.961276 L 116.462089 74.642369 L 147.785226 33.3224862 L 143.786528 33.3224862 L 143.786528 33.3224862 Z M 160.780996 148.285063 L 160.780996 94.9690856 L 161.114221 94.9690856 C 163.11358 102.744371 167.056701 108.992275 172.943703 113.712984 C 178.830705 118.433693 186.32819 120.794012 195.436381 120.794012 C 201.323384 120.794012 206.543854 119.599969 211.09795 117.211845 C 215.652046 114.823722 219.456324 111.574812 222.510902 107.465018 C 225.565478 103.355224 227.898028 98.5790488 229.508624 93.1363488 C 231.119218 87.6936488 231.924504 81.973346 231.924504 75.9752684 C 231.924504 69.532889 231.09145 63.5904384 229.425318 58.1477384 C 227.759184 52.7050384 225.343328 47.9844 222.177676 43.9856818 C 219.012024 39.9869634 215.179976 36.8768958 210.681418 34.6553856 C 206.18286 32.4338754 201.101232 31.323137 195.436381 31.323137 C 191.104437 31.323137 187.07801 31.9618116 183.35698 33.23918 C 179.635951 34.5165484 176.331504 36.3214982 173.443541 38.654084 C 170.555577 40.9866696 168.056416 43.7357472 165.945981 46.9013992 C 163.835546 50.0670512 162.224976 53.5381088 161.114221 57.3146762 L 160.780996 57.3146762 L 160.780996 33.3224862 L 157.448747 33.3224862 L 157.448747 148.285063 L 160.780996 148.285063 L 160.780996 148.285063 Z M 195.436381 117.628376 C 184.995284 117.628376 176.609208 114.046245 170.277904 106.881874 C 163.9466 99.717504 160.780996 89.415405 160.780996 75.9752684 C 160.780996 70.421493 161.558513 65.1454854 163.11357 60.1470876 C 164.668627 55.1486896 166.917872 50.7612728 169.861373 46.9847054 C 172.804874 43.2081382 176.442543 40.2091444 180.774487 37.9876342 C 185.106432 35.766124 189.993681 34.6553856 195.436381 34.6553856 C 200.990156 34.6553856 205.849638 35.766124 210.01497 37.9876342 C 214.1803 40.2091444 217.62359 43.2359066 220.34494 47.0680118 C 223.06629 50.9001168 225.121156 55.2875336 226.5096 60.2303938 C 227.898044 65.173254 228.592256 70.421493 228.592256 75.9752684 C 228.592256 80.9736664 227.95358 85.9442208 226.676212 90.887081 C 225.398844 95.8299412 223.427284 100.272895 220.76147 104.216075 C 218.095658 108.159256 214.680138 111.380398 210.514806 113.879596 C 206.349474 116.378795 201.323384 117.628376 195.436381 117.628376 L 195.436381 117.628376 L 195.436381 117.628376 Z M 250.251872 118.961276 L 250.251872 70.4770582 C 250.251872 65.8118868 250.918314 61.2578592 252.25122 56.814839 C 253.584126 52.3718186 255.638992 48.4564656 258.41588 45.0686626 C 261.192768 41.6808596 264.719362 39.0150872 268.99577 37.0712658 C 273.272176 35.1274444 278.353806 34.322159 284.240808 34.6553856 L 284.240808 31.323137 C 279.131334 31.2120614 274.660612 31.7674308 270.828506 32.9892614 C 266.996402 34.211092 263.691954 35.8771996 260.915066 37.9876342 C 258.138178 40.098069 255.916702 42.569462 254.25057 45.4018874 C 252.584436 48.2343128 251.362624 51.2610752 250.585096 54.4822648 L 250.251872 54.4822648 L 250.251872 33.3224862 L 246.919622 33.3224862 L 246.919622 118.961276 L 250.251872 118.961276 L 250.251872 118.961276 Z M 288.406118 76.8083306 L 360.049464 76.8083306 C 360.271614 70.9213286 359.688476 65.2565626 358.300032 59.8138626 C 356.911588 54.3711628 354.690112 49.5394506 351.635536 45.3185812 C 348.580958 41.0977118 344.637838 37.7099596 339.806052 35.155223 C 334.974268 32.6004862 329.226196 31.323137 322.561666 31.323137 C 317.78542 31.323137 313.120318 32.3228016 308.566222 34.3221608 C 304.012126 36.32152 300.013468 39.2372084 296.570126 43.0693134 C 293.126786 46.9014184 290.34994 51.5942884 288.239506 57.1480638 C 286.12907 62.7018392 285.07387 69.0330484 285.07387 76.1418808 C 285.07387 82.473185 285.79585 88.387867 287.23983 93.8861048 C 288.683812 99.3843424 290.90529 104.160518 293.904328 108.214774 C 296.903366 112.26903 300.763182 115.406866 305.483892 117.628376 C 310.204602 119.849886 315.897136 120.905088 322.561666 120.794012 C 332.33631 120.794012 340.555776 118.044935 347.220306 112.546697 C 353.884836 107.048459 357.827958 99.3010588 359.049788 89.304263 L 355.71754 89.304263 C 354.273558 98.7456812 350.580352 105.826639 344.637814 110.547348 C 338.695274 115.268057 331.225558 117.628376 322.228442 117.628376 C 316.119288 117.628376 310.954354 116.573175 306.733486 114.46274 C 302.512616 112.352305 299.069326 109.464385 296.403514 105.798894 C 293.737702 102.133402 291.766142 97.8292904 290.488774 92.8864302 C 289.211404 87.94357 288.517194 82.5842572 288.406118 76.8083306 L 288.406118 76.8083306 L 288.406118 76.8083306 Z M 356.717214 73.476082 L 288.406118 73.476082 C 288.739344 67.4780046 289.850082 62.0909232 291.738366 57.3146762 C 293.62665 52.5384294 296.098044 48.4564656 299.15262 45.0686626 C 302.207196 41.6808596 305.76156 39.0983926 309.815816 37.3211846 C 313.870072 35.5439764 318.22972 34.6553856 322.89489 34.6553856 C 328.448666 34.6553856 333.335916 35.6828186 337.556784 37.7377156 C 341.777654 39.7926126 345.304248 42.597227 348.136674 46.1516434 C 350.9691 49.7060596 353.107272 53.8435602 354.551252 58.5642694 C 355.995234 63.2849786 356.717214 68.255533 356.717214 73.476082 L 356.717214 73.476082 L 356.717214 73.476082 Z M 429.193622 58.6475756 L 432.52587 58.6475756 C 432.52587 49.0950818 429.749024 42.1529666 424.195248 37.8210218 C 418.641474 33.489077 411.088452 31.323137 401.535958 31.323137 C 396.204334 31.323137 391.705844 31.98958 388.040352 33.3224862 C 384.37486 34.6553922 381.375866 36.3770368 379.04328 38.4874716 C 376.710694 40.5979062 375.044586 42.930457 374.044908 45.4851936 C 373.045228 48.0399304 372.545396 50.4835548 372.545396 52.8161406 C 372.545396 57.481312 373.37845 61.2022858 375.044582 63.9791734 C 376.710714 66.7560612 379.32095 68.9220012 382.875366 70.4770582 C 385.319028 71.5878134 388.095874 72.587478 391.205988 73.476082 C 394.316102 74.364686 397.926002 75.3088138 402.035796 76.3084934 C 405.701288 77.1970974 409.311188 78.0856882 412.865604 78.9742922 C 416.42002 79.8628962 419.557856 81.0569402 422.279206 82.5564594 C 425.000556 84.0559788 427.222032 85.9720026 428.943704 88.3045884 C 430.665374 90.637174 431.526196 93.6917048 431.526196 97.468272 C 431.526196 101.133764 430.665374 104.243831 428.943704 106.798568 C 427.222032 109.353305 425.028324 111.435939 422.362512 113.046534 C 419.6967 114.657129 416.725474 115.823405 413.448748 116.545395 C 410.17202 117.267386 406.978646 117.628376 403.868532 117.628376 C 393.760662 117.628376 386.01326 115.379131 380.626098 110.880573 C 375.238936 106.382015 372.545396 99.3010572 372.545396 89.6374878 L 369.213146 89.6374878 C 369.213146 100.411812 372.128836 108.298055 377.9603 113.296453 C 383.791764 118.294851 392.427754 120.794012 403.868532 120.794012 C 407.534024 120.794012 411.22723 120.377485 414.94826 119.544419 C 418.669288 118.711353 422.001504 117.350698 424.945004 115.462415 C 427.888506 113.574131 430.276594 111.130506 432.10934 108.131468 C 433.942086 105.132429 434.858444 101.466992 434.858444 97.1350472 C 434.858444 93.0252534 434.05316 89.693038 432.442564 87.1383014 C 430.83197 84.5835646 428.721566 82.4731616 426.111292 80.807029 C 423.501018 79.1408964 420.55756 77.8357786 417.280834 76.8916368 C 414.004106 75.947495 410.699658 75.0311358 407.367394 74.1425318 C 402.702222 72.9207012 398.620258 71.8654996 395.12138 70.9768956 C 391.622502 70.0882914 388.373592 69.03309 385.374552 67.8112594 C 382.48659 66.5894288 380.181808 64.8400158 378.460136 62.5629678 C 376.738466 60.2859198 375.877644 57.03701 375.877644 52.8161406 C 375.877644 52.038612 376.099792 50.650189 376.544094 48.6508298 C 376.988396 46.6514706 378.043598 44.624373 379.70973 42.569476 C 381.375862 40.5145792 383.93056 38.6818608 387.373902 37.0712658 C 390.817242 35.460671 395.53788 34.6553856 401.535958 34.6553856 C 405.645752 34.6553856 409.394494 35.099681 412.782298 35.988285 C 416.1701 36.8768892 419.085788 38.2930806 421.52945 40.236902 C 423.973112 42.1807234 425.861366 44.6521164 427.194272 47.6511552 C 428.527178 50.650194 429.193622 54.3156308 429.193622 58.6475756 L 429.193622 58.6475756 L 429.193622 58.6475756 Z M 506.335178 58.6475756 L 509.667426 58.6475756 C 509.667426 49.0950818 506.89058 42.1529666 501.336804 37.8210218 C 495.783028 33.489077 488.230008 31.323137 478.677514 31.323137 C 473.34589 31.323137 468.847398 31.98958 465.181906 33.3224862 C 461.516416 34.6553922 458.517422 36.3770368 456.184836 38.4874716 C 453.85225 40.5979062 452.186142 42.930457 451.186462 45.4851936 C 450.186784 48.0399304 449.68695 50.4835548 449.68695 52.8161406 C 449.68695 57.481312 450.520004 61.2022858 452.186138 63.9791734 C 453.85227 66.7560612 456.462506 68.9220012 460.016922 70.4770582 C 462.460582 71.5878134 465.237428 72.587478 468.347544 73.476082 C 471.457658 74.364686 475.067558 75.3088138 479.177352 76.3084934 C 482.842842 77.1970974 486.452742 78.0856882 490.00716 78.9742922 C 493.561576 79.8628962 496.699412 81.0569402 499.420762 82.5564594 C 502.142112 84.0559788 504.363588 85.9720026 506.085258 88.3045884 C 507.80693 90.637174 508.667752 93.6917048 508.667752 97.468272 C 508.667752 101.133764 507.80693 104.243831 506.085258 106.798568 C 504.363588 109.353305 502.16988 111.435939 499.504068 113.046534 C 496.838256 114.657129 493.86703 115.823405 490.590302 116.545395 C 487.313576 117.267386 484.120202 117.628376 481.010088 117.628376 C 470.902216 117.628376 463.154816 115.379131 457.767654 110.880573 C 452.380492 106.382015 449.68695 99.3010572 449.68695 89.6374878 L 446.354702 89.6374878 C 446.354702 100.411812 449.27039 108.298055 455.101854 113.296453 C 460.93332 118.294851 469.56931 120.794012 481.010088 120.794012 C 484.67558 120.794012 488.368784 120.377485 492.089814 119.544419 C 495.810844 118.711353 499.14306 117.350698 502.08656 115.462415 C 505.030062 113.574131 507.418148 111.130506 509.250894 108.131468 C 511.08364 105.132429 512 101.466992 512 97.1350472 C 512 93.0252534 511.194714 89.693038 509.58412 87.1383014 C 507.973524 84.5835646 505.863122 82.4731616 503.252848 80.807029 C 500.642572 79.1408964 497.699116 77.8357786 494.422388 76.8916368 C 491.145662 75.947495 487.841214 75.0311358 484.508948 74.1425318 C 479.843778 72.9207012 475.761814 71.8654996 472.262936 70.9768956 C 468.764056 70.0882914 465.515146 69.03309 462.516108 67.8112594 C 459.628144 66.5894288 457.323362 64.8400158 455.601692 62.5629678 C 453.880022 60.2859198 453.0192 57.03701 453.0192 52.8161406 C 453.0192 52.038612 453.241348 50.650189 453.68565 48.6508298 C 454.129952 46.6514706 455.185152 44.624373 456.851286 42.569476 C 458.517418 40.5145792 461.072116 38.6818608 464.515458 37.0712658 C 467.958798 35.460671 472.679436 34.6553856 478.677514 34.6553856 C 482.787308 34.6553856 486.53605 35.099681 489.923852 35.988285 C 493.311656 36.8768892 496.227344 38.2930806 498.671006 40.236902 C 501.114666 42.1807234 503.002922 44.6521164 504.335828 47.6511552 C 505.668734 50.650194 506.335178 54.3156308 506.335178 58.6475756 L 506.335178 58.6475756 L 506.335178 58.6475756 Z" stroke-linecap="round" />
</g>
<g transform="matrix(0.24 0 0 0.24 97.55 86.86)" id="LAYx8l8-QkfSfO2Yjrjlm"  >
<path style="stroke: none; stroke-width: 1; stroke-dasharray: none; stroke-linecap: butt; stroke-dashoffset: 0; stroke-linejoin: miter; stroke-miterlimit: 4; fill: rgb(233,233,233); fill-rule: nonzero; opacity: 1;" vector-effect="non-scaling-stroke"  transform=" translate(0, 0)" d="M 2.72524 11.93681 C 2.72524 15.664439999999999 4.88371 19.05489 8.26111 20.63235 C 11.63851 22.20982 15.623830000000002 21.68892 18.48234 19.2964 L 36.448350000000005 4.259179999999999 L 36.448350000000005 4.259179999999999 C 37.713680000000004 3.200119999999999 38.44476 1.6348599999999989 38.44476 -0.015190000000001369 C 38.44476 -1.6652500000000015 37.713680000000004 -3.2305000000000015 36.448350000000005 -4.289560000000002 L 18.526050000000005 -19.290200000000002 L 18.526050000000005 -19.290200000000002 C 15.659610000000004 -21.68936 11.663240000000005 -22.2117 8.276470000000005 -20.62985 C 4.889700000000005 -19.04801 2.7252400000000048 -15.64816 2.7252400000000048 -11.910190000000002 L 2.7252400000000048 -11.910190000000002 L -14.597759999999996 -11.910190000000002 L -14.597759999999996 -11.910190000000002 C -27.768089999999994 -11.910190000000002 -38.444759999999995 -1.2335200000000022 -38.444759999999995 11.93681 L -38.444759999999995 11.93681 z" stroke-linecap="round" />
</g>
<g transform="matrix(0.24 0 0 0.24 97.55 63.6)" id="ptnEbJDGqEDxMO1Ccfm9_"  >
<path style="stroke: none; stroke-width: 1; stroke-dasharray: none; stroke-linecap: butt; stroke-dashoffset: 0; stroke-linejoin: miter; stroke-miterlimit: 4; fill: rgb(233,233,233); fill-rule: nonzero; opacity: 1;" vector-effect="non-scaling-stroke"  transform=" translate(0, 0)" d="M 2.72524 11.93681 C 2.72524 15.664439999999999 4.88371 19.05489 8.26111 20.63235 C 11.63851 22.20982 15.623830000000002 21.68892 18.48234 19.2964 L 36.448350000000005 4.259179999999999 L 36.448350000000005 4.259179999999999 C 37.713680000000004 3.200119999999999 38.44476 1.6348599999999989 38.44476 -0.015190000000001369 C 38.44476 -1.6652500000000015 37.713680000000004 -3.2305000000000015 36.448350000000005 -4.289560000000002 L 18.526050000000005 -19.290200000000002 L 18.526050000000005 -19.290200000000002 C 15.659610000000004 -21.68936 11.663240000000005 -22.2117 8.276470000000005 -20.62985 C 4.889700000000005 -19.04801 2.7252400000000048 -15.64816 2.7252400000000048 -11.910190000000002 L 2.7252400000000048 -11.910190000000002 L -14.597759999999996 -11.910190000000002 L -14.597759999999996 -11.910190000000002 C -27.768089999999994 -11.910190000000002 -38.444759999999995 -1.2335200000000022 -38.444759999999995 11.93681 L -38.444759999999995 11.93681 z" stroke-linecap="round" />
</g>
<g transform="matrix(0.52 0 0 0.52 42.83 86.86)" id="dRV7W3fIP-3cIT0dwNDHi"  >
<g style="" vector-effect="non-scaling-stroke"   >
		<g transform="matrix(1 0 0 1 -32.2 -0.05)" id="1rVpizNlDm84pvjVnSWej"  >
<path style="stroke: none; stroke-width: 1; stroke-dasharray: none; stroke-linecap: round; stroke-dashoffset: 0; stroke-linejoin: round; stroke-miterlimit: 4; fill: rgb(0,216,255); fill-rule: evenodd; opacity: 1;" vector-effect="non-scaling-stroke"  transform=" translate(-18.63, -16.45)" d="M 15.154 16.45 C 15.154 14.530534351963077 16.710034351963078 12.974499999999999 18.6295 12.974499999999999 C 20.548965648036923 12.974499999999999 22.105 14.530534351963075 22.105 16.45 C 22.105 18.369465648036922 20.548965648036923 19.9255 18.6295 19.9255 C 16.710034351963078 19.9255 15.154 18.369465648036922 15.154 16.45 z" stroke-linecap="round" />
</g>
		<g transform="matrix(1 0 0 1 -32.21 -0.02)" id="ia1qdcCWmAclDCO2D-Iu9"  >
<path style="stroke: rgb(0,216,255); stroke-width: 1.66; stroke-dasharray: none; stroke-linecap: round; stroke-dashoffset: 0; stroke-linejoin: round; stroke-miterlimit: 4; fill: none; fill-rule: evenodd; opacity: 1;" vector-effect="non-scaling-stroke"  transform=" translate(-18.63, -16.48)" d="M 18.629 9.383 C 23.295 9.383 27.630000000000003 10.052999999999999 30.899 11.177999999999999 C 34.837 12.533999999999999 37.258 14.588999999999999 37.258 16.45 C 37.258 18.39 34.692 20.572 30.463 21.973 C 27.266000000000002 23.032999999999998 23.058 23.585 18.629 23.585 C 14.087000000000002 23.585 9.787 23.066000000000003 6.553000000000001 21.961000000000002 C 2.463 20.563 0 18.352 0 16.45 C 0 14.604 2.312 12.565 6.195 11.210999999999999 C 9.476 10.067999999999998 13.918 9.383 18.630000000000003 9.383 z" stroke-linecap="round" />
</g>
		<g transform="matrix(1 0 0 1 -32.22 -0.03)" id="UOQe3XHzorTttFfIpuwa3"  >
<path style="stroke: rgb(0,216,255); stroke-width: 1.66; stroke-dasharray: none; stroke-linecap: round; stroke-dashoffset: 0; stroke-linejoin: round; stroke-miterlimit: 4; fill: none; fill-rule: evenodd; opacity: 1;" vector-effect="non-scaling-stroke"  transform=" translate(-18.62, -16.47)" d="M 12.478 12.936 C 14.809 8.894 17.555 5.473 20.163 3.2040000000000006 C 23.304 0.47 26.294 -0.601 27.906 0.328 C 29.586 1.297 30.195 4.611000000000001 29.296 8.974 C 28.617 12.273 26.994 16.194 24.781 20.031 C 22.512 23.965 19.913999999999998 27.430999999999997 17.342 29.68 C 14.087 32.525 10.940999999999999 33.555 9.293 32.605 C 7.693999999999999 31.683999999999997 7.082999999999999 28.661999999999995 7.85 24.621999999999996 C 8.498 21.208999999999996 10.125 17.019 12.478 12.936999999999996 z" stroke-linecap="round" />
</g>
		<g transform="matrix(1 0 0 1 -32.18 0)" id="iNGVfGtvHsOKXxsYRyssE"  >
<path style="stroke: rgb(0,216,255); stroke-width: 1.66; stroke-dasharray: none; stroke-linecap: round; stroke-dashoffset: 0; stroke-linejoin: round; stroke-miterlimit: 4; fill: none; fill-rule: evenodd; opacity: 1;" vector-effect="non-scaling-stroke"  transform=" translate(-18.66, -16.5)" d="M 12.483 20.042 C 10.145 16.004 8.553 11.916000000000002 7.890000000000001 8.524000000000001 C 7.090000000000001 4.437000000000001 7.656000000000001 1.3120000000000012 9.266 0.37900000000000134 C 10.943999999999999 -0.5919999999999986 14.120000000000001 0.5350000000000014 17.451 3.493000000000001 C 19.97 5.729000000000001 22.556 9.093 24.776 12.927 C 27.051 16.857 28.756999999999998 20.839 29.42 24.191 C 30.259 28.432 29.579 31.671999999999997 27.934 32.625 C 26.337 33.55 23.413 32.571 20.297 29.887999999999998 C 17.663 27.622999999999998 14.846 24.119999999999997 12.485 20.041999999999998 z" stroke-linecap="round" />
</g>
		<g transform="matrix(1 0 0 1 22.98 1.08)" id="jeA9VVo-Y4Sp2o4PISSMy"  >
<path style="stroke: none; stroke-width: 1; stroke-dasharray: none; stroke-linecap: round; stroke-dashoffset: 0; stroke-linejoin: round; stroke-miterlimit: 4; fill: rgb(0,216,255); fill-rule: evenodd; opacity: 1;" vector-effect="non-scaling-stroke"  transform=" translate(-73.82, -17.58)" d="M 57.209 25.329 L 52.949000000000005 18.893 C 55.102000000000004 18.693 57.042 17.143 57.042 14.293000000000001 C 57.042 11.393 54.984 9.537 52.097 9.537 L 45.757000000000005 9.537 L 45.757000000000005 25.317 L 47.721000000000004 25.317 L 47.721000000000004 19.047 L 50.868 19.047 L 54.89 25.317 z M 51.862 17.332 L 47.722 17.332 L 47.722 11.299 L 51.862 11.299 C 53.732 11.299 55.009 12.529 55.009 14.303999999999998 C 55.009 16.078999999999997 53.731 17.334 51.862 17.334 z M 64.52 25.612000000000002 C 66.39 25.612000000000002 67.92699999999999 24.997000000000003 69.063 23.862000000000002 L 68.211 22.702 C 67.31099999999999 23.625 65.987 24.145000000000003 64.68599999999999 24.145000000000003 C 62.22599999999999 24.145000000000003 60.71099999999999 22.347 60.568999999999996 20.195000000000004 L 69.81899999999999 20.195000000000004 L 69.81899999999999 19.745000000000005 C 69.81899999999999 16.315000000000005 67.78399999999999 13.617000000000004 64.31899999999999 13.617000000000004 C 61.05399999999999 13.617000000000004 58.688999999999986 16.291000000000004 58.688999999999986 19.603000000000005 C 58.688999999999986 23.176000000000005 61.12599999999998 25.603000000000005 64.50899999999999 25.603000000000005 z M 68.07 18.892000000000003 L 60.56999999999999 18.892000000000003 C 60.66499999999999 17.142000000000003 61.86999999999999 15.092000000000002 64.30799999999999 15.092000000000002 C 66.91099999999999 15.092000000000002 68.04599999999999 17.198 68.07 18.892000000000003 z M 81.604 25.328000000000003 L 81.604 17.473000000000003 C 81.604 14.705000000000002 79.604 13.616000000000003 77.17999999999999 13.616000000000003 C 75.30999999999999 13.616000000000003 73.844 14.231000000000003 72.61399999999999 15.509000000000004 L 73.442 16.739000000000004 C 74.45899999999999 15.651000000000003 75.57199999999999 15.154000000000003 76.94399999999999 15.154000000000003 C 78.6 15.154000000000003 79.83099999999999 16.029000000000003 79.83099999999999 17.567000000000004 L 79.83099999999999 19.625000000000004 C 78.90799999999999 18.560000000000002 77.60699999999999 18.063000000000002 76.04499999999999 18.063000000000002 C 74.10499999999999 18.063000000000002 72.04499999999999 19.270000000000003 72.04499999999999 21.825000000000003 C 72.04499999999999 24.309000000000005 74.10299999999998 25.611000000000004 76.04499999999999 25.611000000000004 C 77.58299999999998 25.611000000000004 78.88499999999999 25.067000000000004 79.83099999999999 24.026000000000003 L 79.83099999999999 25.326000000000004 z M 76.684 24.334000000000003 C 75.02799999999999 24.334000000000003 73.868 23.294000000000004 73.868 21.85 C 73.868 20.383000000000003 75.02799999999999 19.342000000000002 76.684 19.342000000000002 C 77.938 19.342000000000002 79.14399999999999 19.815 79.831 20.762 L 79.831 22.915 C 79.145 23.861 77.938 24.335 76.684 24.335 z M 90.184 25.612000000000002 C 92.26599999999999 25.612000000000002 93.496 24.76 94.372 23.625 L 93.189 22.537 C 92.43199999999999 23.554 91.46199999999999 24.037 90.28899999999999 24.037 C 87.85199999999999 24.037 86.33899999999998 22.144 86.33899999999998 19.613 C 86.33899999999998 17.082 87.85299999999998 15.213 90.28899999999999 15.213 C 91.472 15.213 92.442 15.662999999999998 93.189 16.713 L 94.372 15.625 C 93.497 14.489 92.266 13.638 90.184 13.638 C 86.777 13.638 84.482 16.241 84.482 19.624 C 84.482 23.031 86.777 25.624 90.184 25.624 z M 99.744 25.612000000000002 C 100.784 25.612000000000002 101.424 25.304000000000002 101.874 24.879 L 101.354 23.554000000000002 C 101.117 23.814000000000004 100.654 24.027 100.147 24.027 C 99.367 24.027 98.98700000000001 23.412000000000003 98.98700000000001 22.560000000000002 L 98.98700000000001 15.461000000000002 L 101.307 15.461000000000002 L 101.307 13.901000000000002 L 98.98700000000001 13.901000000000002 L 98.98700000000001 10.778000000000002 L 97.212 10.778000000000002 L 97.212 13.901000000000003 L 95.319 13.901000000000003 L 95.319 15.463000000000003 L 97.212 15.463000000000003 L 97.212 22.940000000000005 C 97.212 24.644000000000005 98.06400000000001 25.614000000000004 99.744 25.614000000000004 z" stroke-linecap="round" />
</g>
</g>
</g>
<g transform="matrix(0.1 0 0 0.1 42.83 63.6)" id="VwERRUrDaTcmhAGyciJ08"  >
<g style="" vector-effect="non-scaling-stroke"   >
		<g transform="matrix(1 0 0 1 -73.68 0)" id="ljg_qGgK2auyisxcfmy0A"  >
<path style="stroke: none; stroke-width: 1; stroke-dasharray: none; stroke-linecap: butt; stroke-dashoffset: 0; stroke-linejoin: miter; stroke-miterlimit: 4; fill: rgb(64,65,55); fill-rule: evenodd; opacity: 1;" vector-effect="non-scaling-stroke"  transform=" translate(-337.75, -580.93)" d="M 414.48046 501.42155 C 414.07099 501.42655 413.65682 501.52428000000003 413.29139 501.73863 C 412.56176 502.167 412.10231 502.95371 412.10231 503.79969 L 412.10231 564.44223 C 412.10231 565.03809 411.82484999999997 565.57054 411.3096 565.86937 C 410.79305 566.16895 410.16271 566.16895 409.6449 565.86937 L 399.73597 560.16182 C 398.25962 559.31051 396.45636 559.31102 394.97968000000003 560.16182 L 355.42323 582.992 C 353.94434 583.8450899999999 353.04508 585.48632 353.04508 587.19326 L 353.04508 632.85362 C 353.04508 634.55928 353.94561 636.12112 355.42323 636.97573 L 394.97968 659.80591 C 396.45856999999995 660.65925 398.25708 660.65925 399.73596999999995 659.80591 L 439.29241999999994 636.97573 C 440.77003999999994 636.12112 441.67056999999994 634.55928 441.67056999999994 632.85362 L 441.67056999999994 519.01981 C 441.67056999999994 517.28819 440.7256499999999 515.66314 439.2131499999999 514.8184200000001 L 415.66952999999995 501.65936000000005 C 415.29981 501.45313000000004 414.88992999999994 501.41711000000004 414.48045999999994 501.42168000000004 z M 160.0191 558.4176 C 159.26476 558.448 158.55606 558.57994 157.87877 558.97262 L 118.32231 581.8028 C 116.84837 582.6548700000001 115.94417 584.20682 115.94417 585.92492 L 116.02327 647.20162 C 116.02327 648.0539500000001 116.46298 648.8453900000001 117.21235 649.2629300000001 C 117.94684 649.7025400000001 118.85848 649.7025400000001 119.59049 649.2629300000001 L 143.05484 635.7865300000001 C 144.54119 634.9035100000001 145.51225000000002 633.36755 145.51225000000002 631.6644200000001 L 145.51225000000002 603.0475500000001 C 145.51225000000002 601.3406100000001 146.41019000000003 599.7739600000001 147.89040000000003 598.9254300000001 L 157.87860000000003 593.1387500000001 C 158.62408000000002 592.7077600000001 159.42441000000002 592.5045700000001 160.25674000000004 592.5045700000001 C 161.07199000000003 592.5045700000001 161.91003000000003 592.7075100000001 162.63489000000004 593.1387500000001 L 172.62309000000005 598.9254300000001 C 174.10325000000006 599.7739600000001 175.00123000000005 601.3406100000001 175.00123000000005 603.0475500000001 L 175.00123000000005 631.6644200000001 C 175.00123000000005 633.36755 175.98199000000005 634.9134100000001 177.45865000000006 635.7865300000001 L 200.92300000000006 649.2629300000001 C 201.65991000000005 649.7025400000001 202.57027000000005 649.7025400000001 203.30114000000006 649.2629300000001 C 204.02950000000007 648.8453900000001 204.49021000000005 648.0539500000001 204.49021000000005 647.20162 L 204.56931000000006 585.92492 C 204.56931000000006 584.20682 203.67513000000005 582.6548700000001 202.19117000000006 581.8028 L 162.6348 558.97262 C 161.96575 558.57994 161.25391000000002 558.44854 160.49447 558.4176 L 160.01884 558.4176 z M 515.47229 558.97262 C 514.64589 558.97162 513.83612 559.18063 513.09414 559.60679 L 473.53769000000005 582.4369700000001 C 472.06007000000005 583.2903100000001 471.1595500000001 584.85215 471.1595500000001 586.5590900000001 L 471.1595500000001 632.2194400000001 C 471.1595500000001 633.93627 472.1266600000001 635.4930400000001 473.61696000000006 636.3415600000001 L 512.8563300000001 658.6961100000001 C 514.30541 659.52358 516.0747500000001 659.5854700000001 517.5333400000001 658.7747100000001 L 541.31478 645.5362500000001 C 542.06944 645.1176900000002 542.57995 644.3358900000001 542.58312 643.4751900000001 C 542.58812 642.6142400000001 542.1392 641.8425800000001 541.39405 641.4141300000001 L 501.59978 618.5839500000001 C 500.85463 618.1590600000001 500.33144 617.2981100000001 500.33144 616.4435000000001 L 500.33144 602.1746400000001 C 500.33144 601.3215500000001 500.86097 600.53974 501.59978 600.1138300000001 L 513.96613 592.9791500000001 C 514.70177 592.5534900000001 515.60546 592.5534900000001 516.34427 592.9791500000001 L 528.7106200000001 600.1138300000001 C 529.44943 600.5397400000002 529.8996900000001 601.3215500000001 529.8996900000001 602.1746400000001 L 529.8996900000001 613.4314400000001 C 529.8996900000001 614.28579 530.34995 615.0663300000001 531.0887600000001 615.49224 C 531.8307400000001 615.9194200000001 532.7281 615.92119 533.4669100000001 615.49224 L 557.1690700000001 601.6992600000001 C 558.6403500000001 600.8446500000001 559.5472100000002 599.2787500000001 559.5472100000002 597.5771500000001 L 559.5472100000002 586.55829 C 559.5472100000002 584.8564200000001 558.6435200000002 583.29078 557.1690700000001 582.4361700000001 L 517.8504300000002 559.60599 C 517.1100200000002 559.17679 516.2986900000002 558.97284 515.4722900000002 558.97182 z M 397.19928000000004 593.05935 C 397.40551000000005 593.05935 397.64827 593.11005 397.83345 593.21662 L 411.38887000000005 601.06462 C 411.75669000000005 601.2777 412.02304000000004 601.67013 412.02304000000004 602.09502 L 412.02304000000004 617.79077 C 412.02304000000004 618.2169299999999 411.75923000000006 618.60961 411.38887000000005 618.82143 L 397.83345 626.66917 C 397.46436 626.87972 397.01347000000004 626.87972 396.64438 626.66917 L 383.08896 618.82143 C 382.71986999999996 618.60835 382.45479 618.2169299999999 382.45479 617.79077 L 382.45479 602.09502 C 382.45479 601.67013 382.72114 601.27872 383.08896 601.06462 L 396.64438 593.21789 C 396.82956 593.11135 396.99302 593.06062 397.19928 593.06062 z" stroke-linecap="round" />
</g>
		<g transform="matrix(1 0 0 1 59.3 27.78)" id="NmeK2LG-oVl-6Pq3AfS-z"  >
<path style="stroke: none; stroke-width: 1; stroke-dasharray: none; stroke-linecap: butt; stroke-dashoffset: 0; stroke-linejoin: miter; stroke-miterlimit: 4; fill: rgb(131,205,41); fill-rule: evenodd; opacity: 1;" vector-effect="non-scaling-stroke"  transform=" translate(-470.72, -608.72)" d="M 633.98311 557.86282 C 632.6117 557.86282 631.27837 558.14642 630.09881 558.8140800000001 L 592.76195 580.3759100000001 C 590.3457599999999 581.7670300000001 588.8776499999999 584.3965600000001 588.8776499999999 587.1932600000001 L 588.8776499999999 630.2377800000002 C 588.8776499999999 633.0329600000001 590.3457599999999 635.6594400000001 592.76195 637.0548800000001 L 602.51234 642.6832800000002 C 607.2496 645.0180400000002 608.99675 644.9820200000001 611.15293 644.9820200000001 C 618.16687 644.9820200000001 622.17166 640.7262200000001 622.17166 633.3292400000001 L 622.17166 590.8397500000001 C 622.17166 590.2390600000001 621.6516399999999 589.8090900000001 621.06186 589.8090900000001 L 616.38485 589.8090900000001 C 615.7855500000001 589.8090900000001 615.27504 590.2390600000001 615.27504 590.8397500000001 L 615.27504 633.3292400000001 C 615.27504 636.6079100000002 611.8600299999999 639.9051000000002 606.31737 637.1342700000001 L 596.17063 631.1890400000001 C 595.81232 630.99372 595.53645 630.64898 595.53645 630.23778 L 595.53645 587.19326 C 595.53645 586.7846 595.8091499999999 586.3696 596.17063 586.16286 L 633.4282099999999 564.68017 C 633.7769999999999 564.47977 634.19238 564.47977 634.5380099999999 564.68017 L 671.7955899999998 586.16286 C 672.1507299999998 586.37594 672.4297599999999 586.7721700000001 672.4297599999999 587.19326 L 672.4297599999999 630.23778 C 672.4297599999999 630.64898 672.2235299999999 631.07007 671.8748599999999 631.26819 L 634.5380099999999 652.75088 C 634.2177499999999 652.94113 633.7769999999998 652.94113 633.4282099999999 652.75088 L 623.8363599999999 647.0433300000001 C 623.5509799999999 646.8759100000001 623.1609699999999 646.8885900000001 622.8850999999999 647.0433300000001 C 620.2374399999999 648.54429 619.7396099999999 648.7188100000001 617.2568299999998 649.5800200000001 C 616.6448599999998 649.7931000000001 615.7157899999999 650.1246500000001 617.5739199999998 651.1654500000001 L 630.0988099999998 658.5375700000001 C 631.2910499999998 659.2275400000001 632.6196399999999 659.5679700000001 633.9831099999999 659.5679700000001 C 635.3655999999999 659.5679700000001 636.6751699999999 659.2275400000001 637.86741 658.5375700000001 L 675.20426 637.05488 C 677.62046 635.64955 679.08856 633.03296 679.08856 630.23778 L 679.08856 587.19326 C 679.08856 584.39656 677.62046 581.77287 675.20426 580.37591 L 637.86741 558.81408 C 636.69736 558.14642 635.35452 557.8628199999999 633.9831099999999 557.8628199999999 z M 278.847 558.73468 C 278.02272999999997 558.73468 277.20704 558.94269 276.46886 559.3688500000001 L 236.91241000000002 582.11989 C 235.43352000000002 582.97221 234.53426000000002 584.6157300000001 234.53426000000002 586.3211500000001 L 234.53426000000002 631.9815000000001 C 234.53426000000002 633.6889500000001 235.43448 635.2495200000001 236.91241000000002 636.1036200000001 L 276.46886 658.9338000000001 C 277.94775 659.7879000000001 279.74626 659.7879000000001 281.22515 658.9338000000001 L 320.78159999999997 636.1036200000001 C 322.25795 635.2495200000001 323.15975 633.6889500000001 323.15975 631.9815000000001 L 323.15975 586.3211500000001 C 323.15975 584.6132000000001 322.26048999999995 582.9722100000001 320.78159999999997 582.11989 L 281.22515 559.3688500000001 C 280.48697 558.9426900000001 279.67127 558.73468 278.847 558.73468 z M 689.3938499999999 558.97313 L 689.3938499999999 560.0829299999999 L 692.4854399999999 560.0829299999999 L 692.4854399999999 568.24776 L 693.7537799999999 568.24776 L 693.7537799999999 560.0829299999999 L 696.9246399999998 560.0829299999999 L 696.9246399999998 558.97313 L 689.3938499999998 558.97313 z M 698.0344399999999 558.97313 L 698.0344399999999 568.24776 L 699.2235099999999 568.24776 L 699.2235099999999 562.77816 C 699.2235099999999 562.55493 699.2336099999999 562.2096899999999 699.2235099999999 561.74776 C 699.2083099999999 561.2772 699.2235099999999 560.86702 699.2235099999999 560.6377 L 699.2235099999999 560.39926 L 701.8394699999999 568.2470000000001 L 703.1078099999999 568.2470000000001 L 705.8030399999999 560.39926 C 705.8030399999999 560.8984800000001 705.7363399999999 561.38045 705.7239399999999 561.82614 C 705.7189399999999 562.25991 705.7239399999999 562.58563 705.7239399999999 562.7774000000001 L 705.7239399999999 568.2470000000001 L 706.9130099999999 568.2470000000001 L 706.9130099999999 558.9723700000001 L 705.1690399999999 558.9723700000001 L 702.4738099999998 566.82037 L 699.8578499999999 558.9723700000001 L 698.0346099999998 558.9723700000001 z M 643.9713099999999 588.62065 C 633.3394199999999 588.62065 627.00722 593.1453399999999 627.00722 600.66991 C 627.00722 608.83272 633.2918599999999 611.0754 643.49568 612.0849999999999 C 655.70349 613.2800399999999 656.65474 615.07246 656.65474 617.4754599999999 C 656.65474 621.6434899999999 653.3316799999999 623.4206899999999 645.4774699999999 623.4206899999999 C 635.6097599999999 623.4206899999999 633.44089 620.9573199999999 632.71476 616.0485799999999 C 632.6292599999999 615.5222099999999 632.2232799999999 615.0973199999999 631.6842399999999 615.0973199999999 L 626.84868 615.0973199999999 C 626.2525599999999 615.0973199999999 625.73888 615.6099799999998 625.73888 616.2071199999998 C 625.73888 622.4904899999998 629.15706 629.9212099999999 645.47747 629.9212099999999 C 657.29209 629.9212099999999 664.10626 625.2836399999999 664.10626 617.1583799999999 C 664.10626 609.1033799999999 658.6016500000001 606.9413599999998 647.1421700000001 605.4261999999999 C 635.5621900000001 603.8940399999999 634.45874 603.1441999999998 634.45874 600.4322299999999 C 634.45874 598.1936 635.39414 595.2000599999999 643.97131 595.2000599999999 C 651.6321 595.2000599999999 654.4636800000001 596.8521999999999 655.6242100000001 602.0176599999999 C 655.72568 602.5031799999998 656.1537500000001 602.8895099999999 656.6547400000001 602.8895099999999 L 661.4903 602.8895099999999 C 661.78836 602.8895099999999 662.07691 602.7068699999999 662.2830200000001 602.4930299999999 C 662.4859500000001 602.2647299999999 662.6286400000001 602.0075099999999 662.6001000000001 601.7005699999999 C 661.8517800000001 592.8046599999999 655.9191000000001 588.6206499999998 643.9713100000001 588.6206499999998 z M 515.3930199999999 599.48097 C 515.2349799999998 599.48097 515.0600799999999 599.48097 514.9173899999998 599.55957 L 507.30732999999987 603.99877 C 507.0219499999999 604.16112 506.83169999999984 604.4632300000001 506.83169999999984 604.7914800000001 L 506.83169999999984 613.5113400000001 C 506.83169999999984 613.8395900000002 507.02194999999983 614.1404400000001 507.30732999999987 614.3040600000002 L 514.9173899999998 618.6638600000001 C 515.2027599999998 618.8287400000002 515.5071699999999 618.8287400000002 515.7893699999998 618.6638600000001 L 523.3994299999998 614.3040600000002 C 523.6816399999998 614.1417100000002 523.8750599999998 613.8395900000002 523.8750599999998 613.5113400000001 L 523.8750599999998 604.7914800000001 C 523.8750599999998 604.4632300000001 523.6817699999998 604.16213 523.3994299999998 603.99877 L 515.7893699999998 599.55957 C 515.6483299999999 599.47587 515.5511799999998 599.48097 515.3930199999999 599.48097 z" stroke-linecap="round" />
</g>
</g>
</g>
</svg>