<?xml version="1.0" encoding="UTF-8" standalone="no" ?>
<!DOCTYPE svg PUBLIC "-//W3C//DTD SVG 1.1//EN" "http://www.w3.org/Graphics/SVG/1.1/DTD/svg11.dtd">
<svg xmlns="http://www.w3.org/2000/svg" xmlns:xlink="http://www.w3.org/1999/xlink" version="1.1" width="230" height="60" viewBox="0 0 230 60" xml:space="preserve">
<desc>Created with Fabric.js 4.6.0</desc>
<defs>
</defs>
<g transform="matrix(0.71 0 0 0.78 115.19 30.19)" id="HUFNjOCyqvpWQNsR10qUD"  >
<path style="stroke: rgb(97,85,228); stroke-width: 1.92; stroke-dasharray: none; stroke-linecap: butt; stroke-dashoffset: 0; stroke-linejoin: miter; stroke-miterlimit: 4; fill: none; fill-rule: nonzero; opacity: 1;" vector-effect="non-scaling-stroke"  transform=" translate(0, 0)" d="M -159.5 37.154 L -159.5 -37.154 L 159.5 -37.154 L 159.5 37.154 z" stroke-linecap="round" />
</g>
<g transform="matrix(0.75 0 0 0.85 14.82 31.79)" id="At9Q-kL1kM0mr-w7OIgF7"  >
<polyline style="stroke: rgb(97,85,228); stroke-width: 1.86; stroke-dasharray: none; stroke-linecap: round; stroke-dashoffset: 0; stroke-linejoin: round; stroke-miterlimit: 4; fill: none; fill-rule: nonzero; opacity: 1;" vector-effect="non-scaling-stroke"  points="9.58,23.25 4.3,23.24 7.88,23.25 7.48,-23.41 -0.52,8.95 -8.43,-23.41 -8,23.36 -4.25,23.36 -9.58,23.41 " />
</g>
<g transform="matrix(0.75 0 0 0.85 27.15 31.74)" id="5zN_hUVgVkfOA6qtXnMs6"  >
<polyline style="stroke: rgb(97,85,228); stroke-width: 1.86; stroke-dasharray: none; stroke-linecap: round; stroke-dashoffset: 0; stroke-linejoin: round; stroke-miterlimit: 4; fill: none; fill-rule: nonzero; opacity: 1;" vector-effect="non-scaling-stroke"  points="4.43,-23.41 4.47,21.27 1.84,23.41 -4.47,23.41 " />
</g>
<g transform="matrix(0.75 0 0 0.85 30.56 11.78)" id="JjE-6HjbNLcisvX9yruji"  >
<line style="stroke: rgb(97,85,228); stroke-width: 1.86; stroke-dasharray: none; stroke-linecap: round; stroke-dashoffset: 0; stroke-linejoin: round; stroke-miterlimit: 4; fill: none; fill-rule: nonzero; opacity: 1;" vector-effect="non-scaling-stroke"  x1="-9.009499999999996" y1="0" x2="9.009499999999996" y2="0" />
</g>
<g transform="matrix(0.75 0 0 0.85 33.61 50.78)" id="0iB7DJlCrsomHc4pOSlQk"  >
<polyline style="stroke: rgb(97,85,228); stroke-width: 1.86; stroke-dasharray: none; stroke-linecap: round; stroke-dashoffset: 0; stroke-linejoin: round; stroke-miterlimit: 4; fill: none; fill-rule: nonzero; opacity: 1;" vector-effect="non-scaling-stroke"  points="-4.15,-1.06 -1.16,1.05 4.15,1.06 " />
</g>
<g transform="matrix(0.75 0 0 0.85 46.82 31.74)" id="l6xiB4h7IB1X2WHwRAo0C"  >
<polyline style="stroke: rgb(97,85,228); stroke-width: 1.87; stroke-dasharray: none; stroke-linecap: round; stroke-dashoffset: 0; stroke-linejoin: round; stroke-miterlimit: 4; fill: none; fill-rule: nonzero; opacity: 1;" vector-effect="non-scaling-stroke"  points="9.09,-12.7 9.14,-23.48 -9.14,-23.62 -9.11,23.62 " />
</g>
<g transform="matrix(0.75 0 0 0.85 46.82 38.74)" id="ZwAIeORigl5gKfge2UhFJ"  >
<polyline style="stroke: rgb(97,85,228); stroke-width: 1.87; stroke-dasharray: none; stroke-linecap: round; stroke-dashoffset: 0; stroke-linejoin: round; stroke-miterlimit: 4; fill: none; fill-rule: nonzero; opacity: 1;" vector-effect="non-scaling-stroke"  points="-9.14,-0.38 8.91,-0.69 9.14,-3.78 9.14,3.78 " />
</g>
<g transform="matrix(0.75 0 0 0.85 62.1 11.9)" id="Tzlr8M9VpSYEit40dtzQO"  >
<line style="stroke: rgb(97,85,228); stroke-width: 1.87; stroke-dasharray: none; stroke-linecap: round; stroke-dashoffset: 0; stroke-linejoin: round; stroke-miterlimit: 4; fill: none; fill-rule: nonzero; opacity: 1;" vector-effect="non-scaling-stroke"  x1="-9.331000000000003" y1="0" x2="9.331000000000003" y2="0" />
</g>
<g transform="matrix(0.75 0 0 0.85 61.76 31.79)" id="1ZipG5gto3QhqaneBMPbo"  >
<line style="stroke: rgb(97,85,228); stroke-width: 1.87; stroke-dasharray: none; stroke-linecap: round; stroke-dashoffset: 0; stroke-linejoin: round; stroke-miterlimit: 4; fill: none; fill-rule: nonzero; opacity: 1;" vector-effect="non-scaling-stroke"  x1="0.028500000000008185" y1="23.63500000000002" x2="-0.028500000000008185" y2="-23.63500000000002" />
</g>
<g transform="matrix(0.75 0 0 0.85 62.19 51.52)" id="lRlHkdrGHGa0NRL9k7xZn"  >
<line style="stroke: rgb(97,85,228); stroke-width: 1; stroke-dasharray: none; stroke-linecap: round; stroke-dashoffset: 0; stroke-linejoin: round; stroke-miterlimit: 4; fill: none; fill-rule: nonzero; opacity: 1;" vector-effect="non-scaling-stroke"  x1="-2.7475000000000023" y1="-0.03450000000000841" x2="2.7475000000000023" y2="0.03450000000000841" />
</g>
<g transform="matrix(0.75 0 0 0.86 77.46 31.79)" id="DWmqY23z9Wwe1WBXatdsE"  >
<polyline style="stroke: rgb(97,85,228); stroke-width: 1.85; stroke-dasharray: none; stroke-linecap: round; stroke-dashoffset: 0; stroke-linejoin: round; stroke-miterlimit: 4; fill: none; fill-rule: nonzero; opacity: 1;" vector-effect="non-scaling-stroke"  points="9.42,23.08 3.95,23.08 6.18,23.08 -1.06,-23.08 -6.84,23.08 -9.42,23.08 -4.33,23.08 " />
</g>
<g transform="matrix(0.75 0 0 0.86 76.32 38.94)" id="JuJQDDC8rEq6_56wacPsI"  >
<line style="stroke: rgb(97,85,228); stroke-width: 1.85; stroke-dasharray: none; stroke-linecap: round; stroke-dashoffset: 0; stroke-linejoin: round; stroke-miterlimit: 4; fill: none; fill-rule: nonzero; opacity: 1;" vector-effect="non-scaling-stroke"  x1="-2.9950000000000045" y1="-0.046999999999997044" x2="2.9950000000000045" y2="0.046999999999997044" />
</g>
<g transform="matrix(0.75 0 0 0.84 94.78 31.79)" id="z1cGp0A9qbcNP7mytMu6v"  >
<path style="stroke: rgb(97,85,228); stroke-width: 1.88; stroke-dasharray: none; stroke-linecap: round; stroke-dashoffset: 0; stroke-linejoin: round; stroke-miterlimit: 4; fill: none; fill-rule: nonzero; opacity: 1;" vector-effect="non-scaling-stroke"  transform=" translate(-213.28, -239.43)" d="M 204.915 263.158 L 204.876 215.759 L 221.724 215.7 L 221.724 247.325 L 204.838 247.325" stroke-linecap="round" />
</g>
<g transform="matrix(0.75 0 0 0.84 99.12 45.05)" id="qfugXZm4AeZivQ-TugHbV"  >
<polyline style="stroke: rgb(97,85,228); stroke-width: 1.88; stroke-dasharray: none; stroke-linecap: round; stroke-dashoffset: 0; stroke-linejoin: round; stroke-miterlimit: 4; fill: none; fill-rule: nonzero; opacity: 1;" vector-effect="non-scaling-stroke"  points="-2.66,-7.92 2.63,-3.76 2.66,7.92 " />
</g>
<g transform="matrix(0.75 0 0 0.85 107.3 31.86)" id="YfAeuxOXAYwXfiRRQaXfj"  >
<polyline style="stroke: rgb(97,85,228); stroke-width: 1.87; stroke-dasharray: none; stroke-linecap: round; stroke-dashoffset: 0; stroke-linejoin: round; stroke-miterlimit: 4; fill: none; fill-rule: nonzero; opacity: 1;" vector-effect="non-scaling-stroke"  points="4.45,-23.55 4.47,21.41 1.84,23.55 -4.47,23.55 " />
</g>
<g transform="matrix(0.75 0 0 0.85 110.73 11.96)" id="39nerp-_TcssNwfVYHcWY"  >
<line style="stroke: rgb(97,85,228); stroke-width: 1.87; stroke-dasharray: none; stroke-linecap: round; stroke-dashoffset: 0; stroke-linejoin: round; stroke-miterlimit: 4; fill: none; fill-rule: nonzero; opacity: 1;" vector-effect="non-scaling-stroke"  x1="-8.977500000000006" y1="-0.07750000000000057" x2="8.977500000000006" y2="0.07750000000000057" />
</g>
<g transform="matrix(0.75 0 0 0.85 113.77 50.79)" id="dC31SAbEHJMFn6Re5_aQZ"  >
<polyline style="stroke: rgb(97,85,228); stroke-width: 1.87; stroke-dasharray: none; stroke-linecap: round; stroke-dashoffset: 0; stroke-linejoin: round; stroke-miterlimit: 4; fill: none; fill-rule: nonzero; opacity: 1;" vector-effect="non-scaling-stroke"  points="-4.15,-1.06 -1.16,1.05 4.15,1.06 " />
</g>
<g transform="matrix(0.75 0 0 0.8 149.97 31.66)" id="agVjp0ijA-ZQJOp9yO_Cg"  >
<polyline style="stroke: rgb(97,85,228); stroke-width: 1.92; stroke-dasharray: none; stroke-linecap: round; stroke-dashoffset: 0; stroke-linejoin: round; stroke-miterlimit: 4; fill: none; fill-rule: nonzero; opacity: 1;" vector-effect="non-scaling-stroke"  points="8.11,-22.4 8.11,-24.93 -7.99,-24.79 -8.11,8.34 7.82,15.22 7.86,24.93 -8.11,24.93 -8.11,20.05 " />
</g>
<g transform="matrix(0.75 0 0 0.85 162.35 31.92)" id="T7IdLEKT61DRW0zJUKNO2"  >
<polyline style="stroke: rgb(97,85,228); stroke-width: 1.87; stroke-dasharray: none; stroke-linecap: round; stroke-dashoffset: 0; stroke-linejoin: round; stroke-miterlimit: 4; fill: none; fill-rule: nonzero; opacity: 1;" vector-effect="non-scaling-stroke"  points="4.45,-23.55 4.47,21.41 1.84,23.55 -4.47,23.55 " />
</g>
<g transform="matrix(0.75 0 0 0.85 165.77 11.96)" id="mDrAb7thXMm8j3-AszyOO"  >
<line style="stroke: rgb(97,85,228); stroke-width: 1.87; stroke-dasharray: none; stroke-linecap: round; stroke-dashoffset: 0; stroke-linejoin: round; stroke-miterlimit: 4; fill: none; fill-rule: nonzero; opacity: 1;" vector-effect="non-scaling-stroke"  x1="-8.977500000000006" y1="-0.07750000000000057" x2="8.977500000000006" y2="0.07750000000000057" />
</g>
<g transform="matrix(0.75 0 0 0.85 168.81 50.9)" id="IaD7JwKbRUtWrySIVr-V7"  >
<polyline style="stroke: rgb(97,85,228); stroke-width: 1.87; stroke-dasharray: none; stroke-linecap: round; stroke-dashoffset: 0; stroke-linejoin: round; stroke-miterlimit: 4; fill: none; fill-rule: nonzero; opacity: 1;" vector-effect="non-scaling-stroke"  points="-4.15,-1.06 -1.16,1.05 4.15,1.06 " />
</g>
<g transform="matrix(0.75 0 0 0.86 181.48 31.66)" id="ySa6a9zadTGXE6pHvz4I_"  >
<polyline style="stroke: rgb(97,85,228); stroke-width: 1.85; stroke-dasharray: none; stroke-linecap: round; stroke-dashoffset: 0; stroke-linejoin: round; stroke-miterlimit: 4; fill: none; fill-rule: nonzero; opacity: 1;" vector-effect="non-scaling-stroke"  points="9.66,23.07 4.47,23.04 7.95,22.98 7.54,-23.09 -0.45,9.27 -8.19,-22.95 -7.61,22.77 -3.94,23.02 -9.66,23.09 " />
</g>
<g transform="matrix(0.75 0 0 0.86 199.69 31.62)" id="I5SKPX4ptQ0AABBWzMDVo"  >
<polyline style="stroke: rgb(97,85,228); stroke-width: 1.85; stroke-dasharray: none; stroke-linecap: round; stroke-dashoffset: 0; stroke-linejoin: round; stroke-miterlimit: 4; fill: none; fill-rule: nonzero; opacity: 1;" vector-effect="non-scaling-stroke"  points="8.91,17.24 8.91,23.12 -8.91,23.12 -8.91,-23.12 8.91,-23.12 8.91,-16.82 " />
</g>
<g transform="matrix(0.75 0 0 0.86 199.69 38.26)" id="9wyxKx210bcCIONCOZxlM"  >
<line style="stroke: rgb(97,85,228); stroke-width: 1.85; stroke-dasharray: none; stroke-linecap: round; stroke-dashoffset: 0; stroke-linejoin: round; stroke-miterlimit: 4; fill: none; fill-rule: nonzero; opacity: 1;" vector-effect="non-scaling-stroke"  x1="8.914000000000016" y1="0" x2="-8.914000000000016" y2="0" />
</g>
<g transform="matrix(0.75 0 0 0.86 206.37 38.29)" id="ncfugcHcTAzpPz3h1fI1B"  >
<line style="stroke: rgb(97,85,228); stroke-width: 1.85; stroke-dasharray: none; stroke-linecap: round; stroke-dashoffset: 0; stroke-linejoin: round; stroke-miterlimit: 4; fill: none; fill-rule: nonzero; opacity: 1;" vector-effect="non-scaling-stroke"  x1="-0.0024999999999977263" y1="-2.659499999999994" x2="0.0024999999999977263" y2="2.659499999999994" />
</g>
<g transform="matrix(0.75 0 0 0.86 217.87 31.78)" id="TZjqN6t7S-7Q1p7uZFqjU"  >
<polyline style="stroke: rgb(97,85,228); stroke-width: 1.85; stroke-dasharray: none; stroke-linecap: round; stroke-dashoffset: 0; stroke-linejoin: round; stroke-miterlimit: 4; fill: none; fill-rule: nonzero; opacity: 1;" vector-effect="non-scaling-stroke"  points="-9.5,-23.1 -9.32,20.05 -7.34,23.11 9.36,23.11 9.5,16.72 " />
</g>
</svg>